<svg xmlns="http://www.w3.org/2000/svg" width="199" height="88" viewBox="0 0 199 88">
  <defs>
    <style>
      .cls-1 {
        fill: #040000;
        fill-rule: evenodd;
      }
    </style>
  </defs>
  <path id="形状_1" data-name="形状 1" class="cls-1" d="M45.085,17.143V19.56h-2.1q-17.163,0-34.325,0c-4.476,0-6.081,1.6-6.082,6.029q0,27.048,0,54.1c0,4.151,1.613,5.753,5.794,5.753H190.553c4.3,0,5.87-1.565,5.871-5.841q0-27.131,0-54.261c0-4.088-1.692-5.772-5.837-5.775q-16.008-.013-32.014,0h-2.063v-2.5h1.85q16.089,0,32.179,0c5.72,0,8.46,2.765,8.46,8.516q0,27.13,0,54.261c0,5.31-2.842,8.163-8.13,8.163H8.19C2.866,88,0,85.165,0,79.892Q0,52.515,0,25.137c0-5.167,2.888-8.069,8.073-8.075q17.656-.019,35.313,0C43.927,17.061,44.465,17.112,45.085,17.143Zm122.193,32.4c-0.958-1.616-1.579-2.642-2.179-3.68a1.611,1.611,0,0,1,.479-2.428,1.64,1.64,0,0,1,2.546.6q2.811,5.127,5.425,10.361a1.626,1.626,0,0,1-.718,2.4,1.7,1.7,0,0,1-2.533-1.079c-0.7-2.978-2.63-3-5.078-2.642-3.577.521-3.613,0.411-3.588,3.986,0.025,3.537-.5,3.074,3.187,3.111q2.143,0.021,4.289,0c1.18-.014,2.371.119,2.41,1.588s-1.015,1.9-2.355,1.872c-2.034-.037-4.071.029-6.1-0.025a1.177,1.177,0,0,0-1.449,1.427c0.059,2.072.017,4.146,0.017,6.546,2.39-.451,4.517-0.857,6.646-1.252,0.972-.18,1.949-0.341,2.925-0.5s1.987,0.043,1.975,1.119a2.521,2.521,0,0,1-1.329,1.906,28.108,28.108,0,0,1-5.441,1.293c-5.712.8-11.439,1.484-17.16,2.209a3.741,3.741,0,0,1-.823.017c-1.136-.109-2.117-0.49-2.084-1.839,0.03-1.243.935-1.626,2.03-1.7,2.631-.189,5.259-0.452,7.893-0.546,1.338-.048,1.858-0.5,1.783-1.863-0.1-1.754-.074-3.518-0.006-5.275,0.043-1.125-.321-1.579-1.5-1.54-2.2.073-4.4,0-6.6,0.027-1.313.015-2.427-.357-2.374-1.846,0.05-1.428,1.226-1.618,2.419-1.609,2.254,0.016,4.51-.019,6.764.014,0.9,0.013,1.357-.3,1.273-1.24a3.022,3.022,0,0,1,0-.33c0.1-4.892.1-4.885-4.762-4.6a19.789,19.789,0,0,1-3.618.07c-0.789-.1-1.952-0.5-2.162-1.065a3.147,3.147,0,0,1,.581-2.492c2.02-2.737,4.194-5.36,6.3-8.036a14.887,14.887,0,0,0,.837-1.43c-2.347,0-4.4-.01-6.457,0-1.029.007-1.862-.227-2.08-1.406a1.624,1.624,0,0,1,1.714-2.182c7.589-.025,15.179-0.01,22.768-0.013,1.228,0,2.1.549,2.1,1.8,0,1.291-.989,1.769-2.15,1.779-3.41.028-6.821,0.063-10.228-.012a2.659,2.659,0,0,0-2.528,1.384c-1.639,2.4-3.43,4.7-5.153,7.048a2.263,2.263,0,0,0-.408,1.416Zm-116.232,7.3q0,7.911,0,15.822c0,1.975-.773,2.864-2.776,2.875-7.2.039-14.4,0.023-21.6,0.009-1.136,0-2.168-.332-2.15-1.712C24.534,72.388,25.555,72.1,26.8,72.1c6.322,0.017,12.644-.018,18.965.03,1.252,0.01,1.755-.3,1.722-1.658-0.089-3.679-.064-7.362-0.013-11.042,0.016-1.147-.38-1.524-1.527-1.515-5.442.046-10.885,0.026-16.326,0.018-2.178,0-3.221-.611-3.08-1.856,0.211-1.859,1.643-1.73,3-1.726,5.387,0.012,10.775-.034,16.162.033,1.337,0.017,1.834-.322,1.788-1.733-0.1-3.128-.033-6.262-0.03-9.394,0-2.2,0-2.2-2.285-2.2H28.843c-0.385,0-.772.025-1.154-0.012-1.052-.1-2-0.389-2.045-1.681C25.6,37.948,26.611,37.6,27.73,37.6c6.872-.026,13.743-0.043,20.614.013,1.82,0.015,2.6.968,2.642,3.079,0.061,3.13.015,6.263,0.015,9.394v6.758h0.044Zm64.293-3.183h3.4c3.9,0,7.808.015,11.711,0,1.154,0,2.2.182,2.2,1.591,0,1.437-1.008,1.758-2.264,1.752-4.729-.023-9.458.006-14.186-0.015-2.068-.009-2.582-0.724-2.067-3.082-0.661.245-1.192,0.427-1.711,0.638-2.8,1.141-5.588,2.3-8.388,3.431-1.129.458-2.284,0.765-2.975-.652-0.533-1.094.12-1.987,1.712-2.648,3.6-1.493,7.277-2.843,10.741-4.607a48.146,48.146,0,0,0,6.124-4.363,13.153,13.153,0,0,0,2.686-2.34c0.529-1.34,1.021-2.7,1.6-4.015,0.484-1.1,1.159-2.127,1.589-3.248,0.489-1.272,1.252-2.044,2.6-1.527,1.3,0.5,1.065,1.607.675,2.659-0.111.3-.173,0.613-0.324,1.163,0.7,0.049,1.263.12,1.829,0.122,3.519,0.011,7.038.026,10.557-.006,1.244-.011,2.289.263,2.317,1.7,0.029,1.472-.94,1.933-2.309,1.9-2.081-.047-4.163-0.012-6.459-0.012,0.521,1.28.973,2.363,1.4,3.455a1.708,1.708,0,0,1-.839,2.373c-1.1.553-1.815-.151-2.271-1.017-0.534-1.016-.889-2.126-1.361-3.177-0.732-1.632-3.7-2.343-5.13-1.23-0.593.461-1.142,0.979-1.691,1.453,4.829,4.393,10.552,7.071,16.669,9.019a14.147,14.147,0,0,1,1.723.553c1.155,0.54,1.909,1.4,1.437,2.749-0.48,1.376-1.667,1.4-2.743.97-3.318-1.313-6.672-2.577-9.858-4.168-2.534-1.265-4.843-2.978-7.25-4.5-0.676-.427-1.239-1.09-2.17-0.34C120.076,50.043,117.775,51.775,115.339,53.658ZM83.862,36.043c2.528,0,5.057,0,7.586,0,2.828,0.006,3.6.92,3.228,3.771-0.572,4.411-1.091,8.83-1.718,13.234-0.168,1.179.07,1.676,1.321,1.834a2.593,2.593,0,0,1,2.489,2.628c0.083,5.212.214,10.431-.947,15.573-0.495,2.19-1.753,3.59-4.012,3.711a48.517,48.517,0,0,1-6.234-.14A1.76,1.76,0,0,1,83.8,74.391c0.279-1.365,1.246-1.571,2.527-1.346,5.6,0.985,6.35.474,6.864-5.106,0.251-2.727.153-5.485,0.218-8.229,0.035-1.481-.934-1.662-2.089-1.66q-7.173.012-14.346,0c-2.965,0-3.77-.824-3.437-3.785,0.441-3.928.977-7.847,1.522-11.762,0.168-1.205.62-2.381,2.168-2.1,1.5,0.268,1.574,1.424,1.38,2.693-0.489,3.2-.891,6.418-1.414,9.615-0.235,1.437.195,2.057,1.687,2.035,3.022-.045,6.047-0.038,9.069,0a1.172,1.172,0,0,0,1.393-1.2c0.523-4.14,1.087-8.275,1.629-12.413,0.183-1.392-.509-1.827-1.829-1.813-4.287.043-8.574,0.012-12.862,0.011-0.385,0-.769,0-1.154,0-1.1-.009-2.088-0.34-2.082-1.59,0.006-1.22,1.017-1.633,2.077-1.668,1.812-.06,3.627-0.027,5.441-0.031C81.664,36.041,82.763,36.043,83.862,36.043Zm-24.2,21.224c-0.6.826-.918,1.252-1.221,1.69-0.691,1-1.488,1.99-2.81,1.168-1.385-.861-0.794-2.054-0.238-3.187,1.232-2.508,2.592-4.97,3.6-7.569,1.047-2.7,1.751-5.54,2.573-8.327a10.273,10.273,0,0,0,.169-1.7c-1.44,0-2.735-.009-4.03,0-1.067.009-1.9-.347-1.924-1.532S56.6,36.2,57.643,36.191q5.852-.031,11.7,0a1.552,1.552,0,0,1,1.789,1.692c-0.052,1.088-.8,1.415-1.814,1.462-3.988.185-3.967,0.208-4.8,4.111-0.365,1.713-.832,3.4-1.348,5.492,1.313,0,2.529,0,3.746,0,3.42,0.01,3.927.675,3.881,4.1-0.079,5.929-.028,11.861.033,17.791,0.022,2.151-.643,3.133-2.769,3.249a35.3,35.3,0,0,1-5.1-.117c-2.309-.209-3.184-1.216-3.2-3.543-0.029-3.844-.006-7.689-0.011-11.533C59.759,58.524,59.716,58.15,59.662,57.267Zm3.527,4.252c0,2.631.043,5.262-.018,7.891-0.031,1.365.648,1.728,1.834,1.633,1.087-.087,2.464.331,2.46-1.534-0.012-5.206-.026-10.413,0-15.619,0.01-1.792-1.192-1.6-2.367-1.644-1.236-.044-1.981.236-1.935,1.71C63.245,56.475,63.188,59,63.189,61.519ZM15.9,60.776c-1.448.508-2.627,0.892-3.784,1.335-1.176.451-2.262,0.453-2.724-.89s0.6-1.812,1.607-2.235A30.334,30.334,0,0,0,14.748,57.3a2.5,2.5,0,0,0,1.1-1.72c0.123-2.465.008-4.942,0.07-7.412,0.028-1.131-.463-1.432-1.482-1.375-0.986.056-1.979-.015-2.967,0.016a1.333,1.333,0,0,1-1.574-1.455,1.478,1.478,0,0,1,1.536-1.736c1.042-.044,2.089-0.055,3.132-0.013A1.124,1.124,0,0,0,15.91,42.24c-0.042-2.031,0-4.064-.014-6.1-0.006-1.26.4-2.227,1.834-2.2,1.384,0.027,1.654,1.05,1.657,2.192,0.006,1.977.052,3.956-.016,5.932-0.039,1.125.319,1.629,1.494,1.544a22.927,22.927,0,0,1,2.8.008,1.552,1.552,0,0,1,1.668,1.66,1.419,1.419,0,0,1-1.713,1.527c-0.163-.014-0.329,0-0.494,0-3.738.035-3.738,0.035-3.738,3.849,0,1.255,0,2.51,0,4.1,1.3-.613,2.355-1.106,3.406-1.613,0.943-.455,2.094-0.82,2.609.24a2.707,2.707,0,0,1-.817,2.319,14.149,14.149,0,0,1-3.464,2.185A2.738,2.738,0,0,0,19.345,60.8c0.083,4.113.127,8.243-.148,12.344-0.237,3.542-1.619,4.466-5.115,4.015a6.222,6.222,0,0,1-2.68-.684A3.014,3.014,0,0,1,10.185,74.3c0.045-1.109,1.108-1.332,2.144-1.193,3.567,0.479,3.567.476,3.568-3.2C15.9,66.955,15.9,64,15.9,60.776Zm95-36.4c-2.225.209-2.228,0.209-2.23-1.958,0-3.4,0-6.8,0-10.346h7.575c0,1.78-.011,6.052-0.011,6.052h1.5v-6.87h2.379V16.21l0.4,0.116,2.71-4.563,2.507,1.328-3.453,4.829-1.953-.795c-0.226,1.237-.227,1.274.782,1.3,1.586,0.033,3.174.009,4.889,0.009v2.1l-3.719.2c1.448,2.249,2.663,4.139,3.963,6.161l-1.779,2.139-2.186-2.648c-0.656,2.027-2.84,2.069-4.178,3.431l-1.174-2.3-1.906,1.321-1.989-2.382-3.07,3.286-1.79-1.3,2.685-4.1a8.108,8.108,0,0,0,.56-1.932c0.077-2.027.093-4.06,0.019-6.086-0.058-1.584.66-1.717,2.1-1.234v8.9l0.368-.011V14.124h-2.993V24.379Zm5.981,2.993a6.759,6.759,0,0,0,.821-1.849c0.113-1.3,0-4.722,0-4.722h-1.425s-0.032,2.606-.032,3.5l-2.081.367Zm4.849-2.091c-0.482-1.6-.9-2.967-1.309-4.336l-0.254.06V25.9Zm6.833,47.532a26.76,26.76,0,0,1,.935-3.011c1.449-3.186,3.01-6.322,4.43-9.52,0.513-1.153,1.02-2.22,2.467-1.787,1.508,0.451,1.427,1.766.938,2.858-1.541,3.444-3.206,6.834-4.832,10.241-0.156.326-.376,0.622-0.742,1.22,2.269,0,4.274,0,6.278,0a3.191,3.191,0,0,1,1.613.09,3.336,3.336,0,0,1,1.472,1.854c0.049,0.529-.8,1.272-1.409,1.687a3.2,3.2,0,0,1-1.613.129q-15.663.008-31.326,0c-2.245,0-3.111-.508-3.125-1.806-0.016-1.432.825-1.959,3.141-1.96q10.14,0,20.279,0h1.494ZM58.71,14.761c1.064,0,1.709-.029,2.352.005,2.13,0.113,2.728,1.2,1.579,3.042-0.781,1.254-1.737,2.4-2.607,3.6-0.22.3-.409,0.63-0.605,0.934,1.923,1.7,1.836,1.662.911,4.017a7.207,7.207,0,0,0-.961,3.5c0.085,1.292-1.957,2.777-3.192,4.046a2.052,2.052,0,0,1-1.63-.667,2.176,2.176,0,0,1-.044-1.906c1.038-1.74,2.262-3.37,3.412-5.043,0.337-.491.664-0.989,0.97-1.446a1.078,1.078,0,0,0-.214-0.362c-2.793-1.349-2.967-2.029-1.135-4.536a16.055,16.055,0,0,0,2.046-3.325c-0.917.355-1.822,0.749-2.756,1.052-0.9.293-1.911,0.92-2.667-.225a2.74,2.74,0,0,1-.057-3.507c1.537-1.861,3.05-3.753,4.721-5.49,2.244-2.334,4.585-4.579,6.971-6.768,1-.921,2.442-2.493,3.585-1.2,0.779,0.881.4,2.941,0.218,4.437-0.072.6-.945,1.152-1.522,1.647C65.254,9,62.4,11.4,59.551,13.816A12.456,12.456,0,0,0,58.71,14.761ZM187.787,56.1q0,8.242,0,16.484c0,2.467-.938,3.668-3.39,3.708a29.152,29.152,0,0,1-6.355-.708,2.509,2.509,0,0,1-1.415-1.849c-0.1-1.084.87-1.623,1.906-1.569,1.2,0.063,2.393.318,3.592,0.473,1.853,0.239,2.268-.132,2.267-1.956q0-15.495.015-30.99a3.148,3.148,0,0,1,.451-1.989,2.029,2.029,0,0,1,1.9-.368,2.38,2.38,0,0,1,.993,1.787C187.818,44.783,187.786,50.443,187.787,56.1ZM129.869,29.83l-2.381-1.493c4.314-4.172,2.367-9.539,2.992-14.594h5.364c-0.168-.9-0.3-1.582-0.422-2.255,2.5-1.091,2.663-1,3.717,2.237h4.9c0,2.818.048,5.491-.029,8.162-0.024.832-1.929,1.057-2.723,0.375a1.772,1.772,0,0,0-.825-0.561c-2.408-.044-4.817-0.026-7.355-0.026A13.655,13.655,0,0,1,129.869,29.83ZM141.145,16.2c-3.231,0-6.259-.047-7.9.043-0.293.016-.076,1.06-0.087,1.618-0.01.486-.155,1.419,0.139,1.433,2.386,0.116,5.4.04,7.852,0.04V16.2ZM110.039,38.52c3.05,0,5.833,0,8.617,0,0.549,0,1.1-.013,1.647.014a1.655,1.655,0,0,1,0,3.309c-1.7.015-3.393,0-5.38,0,0.382,1.093.693,1.987,1.006,2.88,0.453,1.289.183,2.347-1.18,2.785-1.4.45-1.986-.492-2.333-1.657a12.284,12.284,0,0,0-.747-2.347,3.209,3.209,0,0,0-1.482-1.583,2.011,2.011,0,0,0-2.593,1.087,22.719,22.719,0,0,1-2.762,3.876c-0.694.829-1.7,1.431-2.741,0.6-1.071-.858-0.5-1.873.049-2.8,1.765-2.968,3.539-5.931,5.3-8.9,0.58-.983,1.2-2.039,2.54-1.4s0.96,1.775.5,2.841C110.346,37.515,110.268,37.828,110.039,38.52ZM85.226,19.661c4.222,5.455,9.654,5.15,15.746,3.968-3.11-2.773-6.064-4.936-9.917-5.54-1.32-.207-3.86-2.8-3.946-4.055A3.52,3.52,0,0,1,87.5,12.89c0.493,0.283.882,0.463,1.223,0.71,1.968,1.427,1.964,1.432,3.662-.218a4.1,4.1,0,0,0,.584-0.58c2.206-3.268,5.632-3.7,9.134-3.9,1.955-.115,3.858,1.159,4.1,2.848a2.455,2.455,0,0,1-.547,2.026,2.817,2.817,0,0,1-2.235-.005,5.624,5.624,0,0,1-1.7-1.51c-2.158-2.285-4.911-2.074-6.654.542a8.044,8.044,0,0,0-.695,1.306c-1.058,2.484-1,2.647,1.241,4.076,2.5,1.6,5,3.186,7.468,4.839a1.75,1.75,0,0,1,.8,1.266,1.556,1.556,0,0,1-1.161.9c-3.975.329-7.958,0.773-11.938,0.767-2.68,0-5.278-2.736-5.774-5.358A3.6,3.6,0,0,1,85.226,19.661Zm93.788,33.212c0,4.172-.013,8.343.008,12.515,0.006,1.207-.2,2.349-1.63,2.383-1.46.034-1.689-1.13-1.689-2.323q0-12.679,0-25.358c0-1.177.3-2.147,1.7-2.087,1.354,0.058,1.632,1,1.623,2.192C179,44.419,179.014,48.646,179.014,52.872ZM69.474,18.511l-2.871-1.1,0.054-.614c2.718-1.123,5.4-2.362,8.182-3.279,0.631-.208,1.772.563,2.392,1.174a2.332,2.332,0,0,1-.552,1.921c-1.831,1.883-3.794,3.639-5.708,5.442l0.2,0.5a3.8,3.8,0,0,1,1.594.243,10.939,10.939,0,0,1,1.619,1.75A4.8,4.8,0,0,1,72.9,25.674c-2.081.477-4.2,0.8-6.3,1.176-1.639.3-2.46-.373-2.175-2.009A5,5,0,0,1,65.58,22.58C66.792,21.175,68.141,19.888,69.474,18.511Zm12.26,48.4c-2.694,0-5.387-.012-8.081.007-1.113.007-2.045-.24-2.033-1.565,0.012-1.29.924-1.607,2.038-1.607q8.081,0.006,16.162,0c1.113,0,2.045.291,2.032,1.593-0.012,1.276-.9,1.6-2.038,1.584C87.122,66.9,84.428,66.915,81.734,66.916Zm34.471,3.1a3.44,3.44,0,0,1-1.2,1.3,2.115,2.115,0,0,1-1.818-.591,38.53,38.53,0,0,1-2.177-3.477c-1.095-1.707-2.207-3.4-3.354-5.075-0.606-.883-1.056-1.759-0.084-2.616a1.6,1.6,0,0,1,2.562.405c1.987,2.94,3.87,5.949,5.775,8.943A4.976,4.976,0,0,1,116.205,70.018Zm8.87-.47c-0.511.587-.851,1.331-1.316,1.421a2.918,2.918,0,0,1-1.836-.579,2.236,2.236,0,0,1-.513-1.164c-0.852-2.707-1.635-5.437-2.561-8.119-0.381-1.1-.393-1.974.75-2.455a1.546,1.546,0,0,1,2.178,1.137C122.893,62.979,123.946,66.192,125.075,69.548ZM79.5,20.453a3.584,3.584,0,0,1,.98.634c1.017,1.625,2,3.276,2.978,4.922a2.059,2.059,0,0,1,.167.464,2.592,2.592,0,0,1-1.3,3.33,2.439,2.439,0,0,1-2.76-2.008C79.339,25.447,79.5,23.065,79.5,20.453Z"/>
</svg>
